<mxfile host="app.diagrams.net" modified="2023-11-23T14:38:12.477Z" agent="Mozilla/5.0 (Windows NT 10.0; Win64; x64) AppleWebKit/537.36 (KHTML, like Gecko) Chrome/116.0.0.0 Safari/537.36" etag="vvC6WSMkhroPXh5-rOEl" version="22.1.3" type="github">
  <diagram id="C5RBs43oDa-KdzZeNtuy" name="Page-1">
    <mxGraphModel dx="2515" dy="1515" grid="1" gridSize="10" guides="1" tooltips="1" connect="1" arrows="1" fold="1" page="1" pageScale="1" pageWidth="20000" pageHeight="20000" math="0" shadow="0">
      <root>
        <mxCell id="WIyWlLk6GJQsqaUBKTNV-0" />
        <mxCell id="WIyWlLk6GJQsqaUBKTNV-1" parent="WIyWlLk6GJQsqaUBKTNV-0" />
        <mxCell id="GDvwbU59Qu22mrn-EqfF-0" value="" style="ellipse;whiteSpace=wrap;html=1;" vertex="1" parent="WIyWlLk6GJQsqaUBKTNV-1">
          <mxGeometry x="540" y="140" width="120" height="80" as="geometry" />
        </mxCell>
        <mxCell id="GDvwbU59Qu22mrn-EqfF-1" value="Start" style="text;html=1;strokeColor=none;fillColor=none;align=center;verticalAlign=middle;whiteSpace=wrap;rounded=0;" vertex="1" parent="WIyWlLk6GJQsqaUBKTNV-1">
          <mxGeometry x="555" y="155" width="90" height="50" as="geometry" />
        </mxCell>
        <mxCell id="GDvwbU59Qu22mrn-EqfF-2" value="" style="shape=parallelogram;perimeter=parallelogramPerimeter;whiteSpace=wrap;html=1;fixedSize=1;" vertex="1" parent="WIyWlLk6GJQsqaUBKTNV-1">
          <mxGeometry x="495" y="270" width="210" height="60" as="geometry" />
        </mxCell>
        <mxCell id="GDvwbU59Qu22mrn-EqfF-3" value="Input iNumberOfProcess" style="text;html=1;strokeColor=none;fillColor=none;align=center;verticalAlign=middle;whiteSpace=wrap;rounded=0;" vertex="1" parent="WIyWlLk6GJQsqaUBKTNV-1">
          <mxGeometry x="570" y="285" width="60" height="30" as="geometry" />
        </mxCell>
        <mxCell id="GDvwbU59Qu22mrn-EqfF-4" value="" style="endArrow=classic;html=1;rounded=0;exitX=0.5;exitY=1;exitDx=0;exitDy=0;entryX=0.5;entryY=0;entryDx=0;entryDy=0;" edge="1" parent="WIyWlLk6GJQsqaUBKTNV-1" source="GDvwbU59Qu22mrn-EqfF-0" target="GDvwbU59Qu22mrn-EqfF-2">
          <mxGeometry width="50" height="50" relative="1" as="geometry">
            <mxPoint x="565" y="210" as="sourcePoint" />
            <mxPoint x="725" y="250" as="targetPoint" />
          </mxGeometry>
        </mxCell>
        <mxCell id="GDvwbU59Qu22mrn-EqfF-5" value="" style="whiteSpace=wrap;html=1;aspect=fixed;" vertex="1" parent="WIyWlLk6GJQsqaUBKTNV-1">
          <mxGeometry x="475" y="415" width="250" height="250" as="geometry" />
        </mxCell>
        <mxCell id="GDvwbU59Qu22mrn-EqfF-7" value="struct PCB {" style="text;html=1;strokeColor=none;fillColor=none;align=center;verticalAlign=middle;whiteSpace=wrap;rounded=0;" vertex="1" parent="WIyWlLk6GJQsqaUBKTNV-1">
          <mxGeometry x="490" y="430" width="80" height="30" as="geometry" />
        </mxCell>
        <mxCell id="GDvwbU59Qu22mrn-EqfF-8" value="int iReady = 0;&lt;br&gt;int iTerminated = 0;&lt;br&gt;int iArrival = 0;&lt;br&gt;int BurstTime=0;&lt;br&gt;int BurstTime_have=0;&lt;br&gt;int iPID;&lt;br&gt;int iStart, iFinish, iWaiting, iResponse, iTaT;}&lt;br&gt;PCB Input[iNumberOfProcess};&lt;br&gt;PCB TerminatedArray[iNumberOfProcess];&lt;br&gt;int iRemain = iNumberOfProcess;&lt;br&gt;int current = 0;&lt;br&gt;bool sort_rq = 1;" style="text;html=1;strokeColor=none;fillColor=none;align=center;verticalAlign=middle;whiteSpace=wrap;rounded=0;" vertex="1" parent="WIyWlLk6GJQsqaUBKTNV-1">
          <mxGeometry x="480" y="450" width="255" height="180" as="geometry" />
        </mxCell>
        <mxCell id="GDvwbU59Qu22mrn-EqfF-9" value="" style="endArrow=classic;html=1;rounded=0;entryX=0.5;entryY=0;entryDx=0;entryDy=0;exitX=0.5;exitY=1;exitDx=0;exitDy=0;" edge="1" parent="WIyWlLk6GJQsqaUBKTNV-1" source="GDvwbU59Qu22mrn-EqfF-2" target="GDvwbU59Qu22mrn-EqfF-5">
          <mxGeometry width="50" height="50" relative="1" as="geometry">
            <mxPoint x="565" y="610" as="sourcePoint" />
            <mxPoint x="615" y="560" as="targetPoint" />
          </mxGeometry>
        </mxCell>
        <mxCell id="GDvwbU59Qu22mrn-EqfF-10" value="" style="rounded=0;whiteSpace=wrap;html=1;" vertex="1" parent="WIyWlLk6GJQsqaUBKTNV-1">
          <mxGeometry x="430" y="710" width="340" height="50" as="geometry" />
        </mxCell>
        <mxCell id="GDvwbU59Qu22mrn-EqfF-11" value="Random InPut[iNumberOfProcess]&lt;br&gt;int quantumTime = int Random_quantumTime;&lt;br&gt;Sort Input[iNumberOfProcess] in ascending order by iArrival" style="text;html=1;strokeColor=none;fillColor=none;align=center;verticalAlign=middle;whiteSpace=wrap;rounded=0;" vertex="1" parent="WIyWlLk6GJQsqaUBKTNV-1">
          <mxGeometry x="440" y="720" width="335" height="30" as="geometry" />
        </mxCell>
        <mxCell id="GDvwbU59Qu22mrn-EqfF-12" value="" style="endArrow=classic;html=1;rounded=0;exitX=0.5;exitY=1;exitDx=0;exitDy=0;entryX=0.5;entryY=0;entryDx=0;entryDy=0;" edge="1" parent="WIyWlLk6GJQsqaUBKTNV-1" source="GDvwbU59Qu22mrn-EqfF-5" target="GDvwbU59Qu22mrn-EqfF-10">
          <mxGeometry width="50" height="50" relative="1" as="geometry">
            <mxPoint x="565" y="870" as="sourcePoint" />
            <mxPoint x="615" y="820" as="targetPoint" />
          </mxGeometry>
        </mxCell>
        <mxCell id="GDvwbU59Qu22mrn-EqfF-13" value="" style="rounded=0;whiteSpace=wrap;html=1;" vertex="1" parent="WIyWlLk6GJQsqaUBKTNV-1">
          <mxGeometry x="492.5" y="810" width="215" height="60" as="geometry" />
        </mxCell>
        <mxCell id="GDvwbU59Qu22mrn-EqfF-14" value="" style="endArrow=classic;html=1;rounded=0;exitX=0.5;exitY=1;exitDx=0;exitDy=0;" edge="1" parent="WIyWlLk6GJQsqaUBKTNV-1" source="GDvwbU59Qu22mrn-EqfF-10" target="GDvwbU59Qu22mrn-EqfF-13">
          <mxGeometry width="50" height="50" relative="1" as="geometry">
            <mxPoint x="525" y="760" as="sourcePoint" />
            <mxPoint x="575" y="710" as="targetPoint" />
          </mxGeometry>
        </mxCell>
        <mxCell id="GDvwbU59Qu22mrn-EqfF-15" value="ReadyQueue[Ready++] = Input[0];" style="text;html=1;strokeColor=none;fillColor=none;align=center;verticalAlign=middle;whiteSpace=wrap;rounded=0;" vertex="1" parent="WIyWlLk6GJQsqaUBKTNV-1">
          <mxGeometry x="483.75" y="820" width="232.5" height="10" as="geometry" />
        </mxCell>
        <mxCell id="GDvwbU59Qu22mrn-EqfF-16" value="Remove Input[0];&lt;br&gt;iRemain--;" style="text;html=1;strokeColor=none;fillColor=none;align=center;verticalAlign=middle;whiteSpace=wrap;rounded=0;" vertex="1" parent="WIyWlLk6GJQsqaUBKTNV-1">
          <mxGeometry x="505" y="840" width="190" height="10" as="geometry" />
        </mxCell>
        <mxCell id="GDvwbU59Qu22mrn-EqfF-29" style="edgeStyle=orthogonalEdgeStyle;rounded=0;orthogonalLoop=1;jettySize=auto;html=1;exitX=0.5;exitY=1;exitDx=0;exitDy=0;" edge="1" parent="WIyWlLk6GJQsqaUBKTNV-1" source="GDvwbU59Qu22mrn-EqfF-17" target="GDvwbU59Qu22mrn-EqfF-30">
          <mxGeometry relative="1" as="geometry">
            <mxPoint x="599.9999999999998" y="1180" as="targetPoint" />
            <Array as="points">
              <mxPoint x="602" y="1190" />
            </Array>
          </mxGeometry>
        </mxCell>
        <mxCell id="GDvwbU59Qu22mrn-EqfF-17" value="" style="rhombus;whiteSpace=wrap;html=1;" vertex="1" parent="WIyWlLk6GJQsqaUBKTNV-1">
          <mxGeometry x="475" y="920" width="255" height="130" as="geometry" />
        </mxCell>
        <mxCell id="GDvwbU59Qu22mrn-EqfF-18" value="ReadyQueue[0].BurstTime &amp;gt;quantumTime" style="text;html=1;strokeColor=none;fillColor=none;align=center;verticalAlign=middle;whiteSpace=wrap;rounded=0;" vertex="1" parent="WIyWlLk6GJQsqaUBKTNV-1">
          <mxGeometry x="495" y="970" width="230" height="30" as="geometry" />
        </mxCell>
        <mxCell id="GDvwbU59Qu22mrn-EqfF-20" value="" style="endArrow=classic;html=1;rounded=0;exitX=0.5;exitY=1;exitDx=0;exitDy=0;" edge="1" parent="WIyWlLk6GJQsqaUBKTNV-1" source="GDvwbU59Qu22mrn-EqfF-13" target="GDvwbU59Qu22mrn-EqfF-17">
          <mxGeometry width="50" height="50" relative="1" as="geometry">
            <mxPoint x="455" y="840" as="sourcePoint" />
            <mxPoint x="505" y="790" as="targetPoint" />
          </mxGeometry>
        </mxCell>
        <mxCell id="GDvwbU59Qu22mrn-EqfF-22" value="" style="rounded=0;whiteSpace=wrap;html=1;" vertex="1" parent="WIyWlLk6GJQsqaUBKTNV-1">
          <mxGeometry x="780" y="930" width="480" height="110" as="geometry" />
        </mxCell>
        <mxCell id="GDvwbU59Qu22mrn-EqfF-23" value="ReadyQueue[0].BurstTime_have -= quantumTime;&lt;br&gt;ReadyQueue[0].iStart = ReadyQueue[0].iArrival;&lt;br&gt;ReadyQueue[0].iResponse = ReadyQueue[0].iStart - ReadyQueue[0].iArrival;&lt;br&gt;current = ReadyQueue[0].iStart + quantumTime;&lt;br&gt;Draw GanttChart" style="text;html=1;strokeColor=none;fillColor=none;align=center;verticalAlign=middle;whiteSpace=wrap;rounded=0;" vertex="1" parent="WIyWlLk6GJQsqaUBKTNV-1">
          <mxGeometry x="790" y="940" width="470" height="90" as="geometry" />
        </mxCell>
        <mxCell id="GDvwbU59Qu22mrn-EqfF-25" value="" style="endArrow=classic;html=1;rounded=0;exitX=1;exitY=0.5;exitDx=0;exitDy=0;entryX=0;entryY=0.5;entryDx=0;entryDy=0;" edge="1" parent="WIyWlLk6GJQsqaUBKTNV-1" source="GDvwbU59Qu22mrn-EqfF-17" target="GDvwbU59Qu22mrn-EqfF-22">
          <mxGeometry width="50" height="50" relative="1" as="geometry">
            <mxPoint x="750" y="860" as="sourcePoint" />
            <mxPoint x="800" y="810" as="targetPoint" />
          </mxGeometry>
        </mxCell>
        <mxCell id="GDvwbU59Qu22mrn-EqfF-26" value="True" style="text;html=1;strokeColor=none;fillColor=none;align=center;verticalAlign=middle;whiteSpace=wrap;rounded=0;" vertex="1" parent="WIyWlLk6GJQsqaUBKTNV-1">
          <mxGeometry x="720" y="960" width="60" height="30" as="geometry" />
        </mxCell>
        <mxCell id="GDvwbU59Qu22mrn-EqfF-30" value="" style="rounded=0;whiteSpace=wrap;html=1;" vertex="1" parent="WIyWlLk6GJQsqaUBKTNV-1">
          <mxGeometry x="775" y="1140" width="485" height="110" as="geometry" />
        </mxCell>
        <mxCell id="GDvwbU59Qu22mrn-EqfF-32" value="ReadyQueue[0].iStart = ReadyQueue[0].iArrival;&lt;br&gt;ReadyQueue[0].iFinish = ReadyQueue[0].iStart + ReadyQueue[0].BurstTime;&lt;br&gt;ReadyQueue[0].iResponse = ReadyQueue[0].iStart - ReadyQueue[0].iArrival;&lt;br&gt;current = ReadyQueue[0].iFinish;&lt;br&gt;ReadyQueue[0].BurstTime_have = 0;&lt;br&gt;sort_rq = 0;&lt;br&gt;Draw GanttChart" style="text;html=1;strokeColor=none;fillColor=none;align=center;verticalAlign=middle;whiteSpace=wrap;rounded=0;" vertex="1" parent="WIyWlLk6GJQsqaUBKTNV-1">
          <mxGeometry x="780" y="1140" width="475" height="110" as="geometry" />
        </mxCell>
        <mxCell id="GDvwbU59Qu22mrn-EqfF-33" value="False" style="text;html=1;strokeColor=none;fillColor=none;align=center;verticalAlign=middle;whiteSpace=wrap;rounded=0;" vertex="1" parent="WIyWlLk6GJQsqaUBKTNV-1">
          <mxGeometry x="656.25" y="1160" width="60" height="30" as="geometry" />
        </mxCell>
        <mxCell id="GDvwbU59Qu22mrn-EqfF-34" value="" style="endArrow=classic;html=1;rounded=0;exitX=1;exitY=0.5;exitDx=0;exitDy=0;entryX=0.5;entryY=0;entryDx=0;entryDy=0;" edge="1" parent="WIyWlLk6GJQsqaUBKTNV-1" target="GDvwbU59Qu22mrn-EqfF-35">
          <mxGeometry width="50" height="50" relative="1" as="geometry">
            <mxPoint x="1255" y="985" as="sourcePoint" />
            <mxPoint x="600" y="1280" as="targetPoint" />
            <Array as="points">
              <mxPoint x="1365" y="985" />
              <mxPoint x="1365" y="1320" />
              <mxPoint x="600" y="1320" />
            </Array>
          </mxGeometry>
        </mxCell>
        <mxCell id="GDvwbU59Qu22mrn-EqfF-35" value="" style="rhombus;whiteSpace=wrap;html=1;" vertex="1" parent="WIyWlLk6GJQsqaUBKTNV-1">
          <mxGeometry x="487.5" y="1400" width="225" height="100" as="geometry" />
        </mxCell>
        <mxCell id="GDvwbU59Qu22mrn-EqfF-36" value="" style="endArrow=classic;html=1;rounded=0;" edge="1" parent="WIyWlLk6GJQsqaUBKTNV-1">
          <mxGeometry width="50" height="50" relative="1" as="geometry">
            <mxPoint x="1260" y="1200" as="sourcePoint" />
            <mxPoint x="1360" y="1200" as="targetPoint" />
            <Array as="points" />
          </mxGeometry>
        </mxCell>
        <mxCell id="GDvwbU59Qu22mrn-EqfF-37" value="iTerminated &amp;lt; iNumberOfProcess" style="text;html=1;strokeColor=none;fillColor=none;align=center;verticalAlign=middle;whiteSpace=wrap;rounded=0;" vertex="1" parent="WIyWlLk6GJQsqaUBKTNV-1">
          <mxGeometry x="507.5" y="1435" width="190" height="30" as="geometry" />
        </mxCell>
        <mxCell id="GDvwbU59Qu22mrn-EqfF-38" value="" style="rounded=0;whiteSpace=wrap;html=1;" vertex="1" parent="WIyWlLk6GJQsqaUBKTNV-1">
          <mxGeometry x="160" y="1310" width="270" height="60" as="geometry" />
        </mxCell>
        <mxCell id="GDvwbU59Qu22mrn-EqfF-39" value="Sort TerminatedArray[[ in ascending order by iPID&lt;br&gt;Calculate AWT and ATaT" style="text;html=1;strokeColor=none;fillColor=none;align=center;verticalAlign=middle;whiteSpace=wrap;rounded=0;" vertex="1" parent="WIyWlLk6GJQsqaUBKTNV-1">
          <mxGeometry x="160" y="1325" width="260" height="30" as="geometry" />
        </mxCell>
        <mxCell id="GDvwbU59Qu22mrn-EqfF-40" value="" style="endArrow=classic;html=1;rounded=0;entryX=1;entryY=0.5;entryDx=0;entryDy=0;" edge="1" parent="WIyWlLk6GJQsqaUBKTNV-1" target="GDvwbU59Qu22mrn-EqfF-38">
          <mxGeometry width="50" height="50" relative="1" as="geometry">
            <mxPoint x="560" y="1420" as="sourcePoint" />
            <mxPoint x="650" y="1230" as="targetPoint" />
            <Array as="points">
              <mxPoint x="560" y="1340" />
            </Array>
          </mxGeometry>
        </mxCell>
        <mxCell id="GDvwbU59Qu22mrn-EqfF-41" value="False" style="text;html=1;strokeColor=none;fillColor=none;align=center;verticalAlign=middle;whiteSpace=wrap;rounded=0;" vertex="1" parent="WIyWlLk6GJQsqaUBKTNV-1">
          <mxGeometry x="475" y="1310" width="60" height="30" as="geometry" />
        </mxCell>
        <mxCell id="GDvwbU59Qu22mrn-EqfF-42" value="" style="ellipse;whiteSpace=wrap;html=1;" vertex="1" parent="WIyWlLk6GJQsqaUBKTNV-1">
          <mxGeometry x="20" y="1300" width="120" height="80" as="geometry" />
        </mxCell>
        <mxCell id="GDvwbU59Qu22mrn-EqfF-43" value="End" style="text;html=1;strokeColor=none;fillColor=none;align=center;verticalAlign=middle;whiteSpace=wrap;rounded=0;" vertex="1" parent="WIyWlLk6GJQsqaUBKTNV-1">
          <mxGeometry x="50.63" y="1325" width="58.75" height="30" as="geometry" />
        </mxCell>
        <mxCell id="GDvwbU59Qu22mrn-EqfF-44" value="" style="endArrow=classic;html=1;rounded=0;exitX=0;exitY=0.5;exitDx=0;exitDy=0;entryX=1;entryY=0.5;entryDx=0;entryDy=0;" edge="1" parent="WIyWlLk6GJQsqaUBKTNV-1" source="GDvwbU59Qu22mrn-EqfF-39" target="GDvwbU59Qu22mrn-EqfF-42">
          <mxGeometry width="50" height="50" relative="1" as="geometry">
            <mxPoint x="50" y="1190" as="sourcePoint" />
            <mxPoint x="100" y="1140" as="targetPoint" />
          </mxGeometry>
        </mxCell>
        <mxCell id="GDvwbU59Qu22mrn-EqfF-45" value="" style="rhombus;whiteSpace=wrap;html=1;" vertex="1" parent="WIyWlLk6GJQsqaUBKTNV-1">
          <mxGeometry x="560" y="1570" width="80" height="80" as="geometry" />
        </mxCell>
        <mxCell id="GDvwbU59Qu22mrn-EqfF-46" value="iRemain&amp;gt;0" style="text;html=1;strokeColor=none;fillColor=none;align=center;verticalAlign=middle;whiteSpace=wrap;rounded=0;" vertex="1" parent="WIyWlLk6GJQsqaUBKTNV-1">
          <mxGeometry x="572.5" y="1595" width="60" height="30" as="geometry" />
        </mxCell>
        <mxCell id="GDvwbU59Qu22mrn-EqfF-47" value="" style="endArrow=classic;html=1;rounded=0;exitX=0.5;exitY=1;exitDx=0;exitDy=0;entryX=0.5;entryY=0;entryDx=0;entryDy=0;" edge="1" parent="WIyWlLk6GJQsqaUBKTNV-1" source="GDvwbU59Qu22mrn-EqfF-35" target="GDvwbU59Qu22mrn-EqfF-45">
          <mxGeometry width="50" height="50" relative="1" as="geometry">
            <mxPoint x="590" y="1600" as="sourcePoint" />
            <mxPoint x="640" y="1550" as="targetPoint" />
          </mxGeometry>
        </mxCell>
        <mxCell id="GDvwbU59Qu22mrn-EqfF-48" value="True" style="text;html=1;strokeColor=none;fillColor=none;align=center;verticalAlign=middle;whiteSpace=wrap;rounded=0;" vertex="1" parent="WIyWlLk6GJQsqaUBKTNV-1">
          <mxGeometry x="585" y="1520" width="60" height="30" as="geometry" />
        </mxCell>
        <mxCell id="GDvwbU59Qu22mrn-EqfF-49" value="Input[0].iArrival &amp;lt;= current" style="rhombus;whiteSpace=wrap;html=1;" vertex="1" parent="WIyWlLk6GJQsqaUBKTNV-1">
          <mxGeometry x="520" y="1730" width="160" height="100" as="geometry" />
        </mxCell>
        <mxCell id="GDvwbU59Qu22mrn-EqfF-50" value="" style="endArrow=classic;html=1;rounded=0;exitX=0.5;exitY=1;exitDx=0;exitDy=0;" edge="1" parent="WIyWlLk6GJQsqaUBKTNV-1" source="GDvwbU59Qu22mrn-EqfF-45" target="GDvwbU59Qu22mrn-EqfF-49">
          <mxGeometry width="50" height="50" relative="1" as="geometry">
            <mxPoint x="580" y="1780" as="sourcePoint" />
            <mxPoint x="630" y="1730" as="targetPoint" />
          </mxGeometry>
        </mxCell>
        <mxCell id="GDvwbU59Qu22mrn-EqfF-51" value="True" style="text;html=1;strokeColor=none;fillColor=none;align=center;verticalAlign=middle;whiteSpace=wrap;rounded=0;" vertex="1" parent="WIyWlLk6GJQsqaUBKTNV-1">
          <mxGeometry x="585" y="1670" width="60" height="30" as="geometry" />
        </mxCell>
        <mxCell id="GDvwbU59Qu22mrn-EqfF-52" value="iReady&amp;gt;0" style="rhombus;whiteSpace=wrap;html=1;" vertex="1" parent="WIyWlLk6GJQsqaUBKTNV-1">
          <mxGeometry x="560" y="1880" width="80" height="80" as="geometry" />
        </mxCell>
        <mxCell id="GDvwbU59Qu22mrn-EqfF-54" value="" style="endArrow=classic;html=1;rounded=0;exitX=0.5;exitY=1;exitDx=0;exitDy=0;entryX=0.5;entryY=0;entryDx=0;entryDy=0;" edge="1" parent="WIyWlLk6GJQsqaUBKTNV-1" source="GDvwbU59Qu22mrn-EqfF-49" target="GDvwbU59Qu22mrn-EqfF-52">
          <mxGeometry width="50" height="50" relative="1" as="geometry">
            <mxPoint x="630" y="2050" as="sourcePoint" />
            <mxPoint x="680" y="2000" as="targetPoint" />
          </mxGeometry>
        </mxCell>
        <mxCell id="GDvwbU59Qu22mrn-EqfF-55" value="ReadyQueue[0].BurstTime_have &amp;gt; 0" style="rhombus;whiteSpace=wrap;html=1;" vertex="1" parent="WIyWlLk6GJQsqaUBKTNV-1">
          <mxGeometry x="477.5" y="2070" width="245" height="180" as="geometry" />
        </mxCell>
        <mxCell id="GDvwbU59Qu22mrn-EqfF-61" value="Push Input[0] into ReadyQueue;&lt;br&gt;iReady++;&lt;br&gt;Remove Input[0];&lt;br&gt;iRemain--;" style="rounded=0;whiteSpace=wrap;html=1;" vertex="1" parent="WIyWlLk6GJQsqaUBKTNV-1">
          <mxGeometry x="810" y="1750" width="230" height="60" as="geometry" />
        </mxCell>
        <mxCell id="GDvwbU59Qu22mrn-EqfF-62" value="" style="endArrow=classic;html=1;rounded=0;exitX=1;exitY=0.5;exitDx=0;exitDy=0;entryX=0;entryY=0.5;entryDx=0;entryDy=0;" edge="1" parent="WIyWlLk6GJQsqaUBKTNV-1" source="GDvwbU59Qu22mrn-EqfF-49" target="GDvwbU59Qu22mrn-EqfF-61">
          <mxGeometry width="50" height="50" relative="1" as="geometry">
            <mxPoint x="830" y="1830" as="sourcePoint" />
            <mxPoint x="880" y="1780" as="targetPoint" />
          </mxGeometry>
        </mxCell>
        <mxCell id="GDvwbU59Qu22mrn-EqfF-63" value="True" style="text;html=1;strokeColor=none;fillColor=none;align=center;verticalAlign=middle;whiteSpace=wrap;rounded=0;" vertex="1" parent="WIyWlLk6GJQsqaUBKTNV-1">
          <mxGeometry x="705" y="1750" width="60" height="30" as="geometry" />
        </mxCell>
        <mxCell id="GDvwbU59Qu22mrn-EqfF-64" value="current = Input[0].iArrival&lt;span style=&quot;white-space: pre;&quot;&gt;&#x9;&lt;/span&gt;;&lt;br&gt;ReadyQueue[iReady++] = Input[0];&lt;br&gt;Remove Input[0];&lt;br&gt;iRemain--;&lt;br&gt;" style="rounded=0;whiteSpace=wrap;html=1;" vertex="1" parent="WIyWlLk6GJQsqaUBKTNV-1">
          <mxGeometry x="810" y="1890" width="230" height="60" as="geometry" />
        </mxCell>
        <mxCell id="GDvwbU59Qu22mrn-EqfF-65" value="" style="endArrow=classic;html=1;rounded=0;exitX=1;exitY=0.5;exitDx=0;exitDy=0;entryX=0;entryY=0.5;entryDx=0;entryDy=0;" edge="1" parent="WIyWlLk6GJQsqaUBKTNV-1" source="GDvwbU59Qu22mrn-EqfF-52" target="GDvwbU59Qu22mrn-EqfF-64">
          <mxGeometry width="50" height="50" relative="1" as="geometry">
            <mxPoint x="830" y="1830" as="sourcePoint" />
            <mxPoint x="880" y="1780" as="targetPoint" />
          </mxGeometry>
        </mxCell>
        <mxCell id="GDvwbU59Qu22mrn-EqfF-66" value="False" style="text;html=1;strokeColor=none;fillColor=none;align=center;verticalAlign=middle;whiteSpace=wrap;rounded=0;" vertex="1" parent="WIyWlLk6GJQsqaUBKTNV-1">
          <mxGeometry x="690" y="1890" width="60" height="30" as="geometry" />
        </mxCell>
        <mxCell id="GDvwbU59Qu22mrn-EqfF-68" value="False" style="text;html=1;strokeColor=none;fillColor=none;align=center;verticalAlign=middle;whiteSpace=wrap;rounded=0;" vertex="1" parent="WIyWlLk6GJQsqaUBKTNV-1">
          <mxGeometry x="596.25" y="1840" width="60" height="30" as="geometry" />
        </mxCell>
        <mxCell id="GDvwbU59Qu22mrn-EqfF-69" value="True" style="text;html=1;strokeColor=none;fillColor=none;align=center;verticalAlign=middle;whiteSpace=wrap;rounded=0;" vertex="1" parent="WIyWlLk6GJQsqaUBKTNV-1">
          <mxGeometry x="585" y="2010" width="60" height="30" as="geometry" />
        </mxCell>
        <mxCell id="GDvwbU59Qu22mrn-EqfF-71" value="" style="endArrow=classic;html=1;rounded=0;exitX=0.5;exitY=1;exitDx=0;exitDy=0;" edge="1" parent="WIyWlLk6GJQsqaUBKTNV-1" source="GDvwbU59Qu22mrn-EqfF-52" target="GDvwbU59Qu22mrn-EqfF-55">
          <mxGeometry width="50" height="50" relative="1" as="geometry">
            <mxPoint x="790" y="2070" as="sourcePoint" />
            <mxPoint x="840" y="2020" as="targetPoint" />
          </mxGeometry>
        </mxCell>
        <mxCell id="GDvwbU59Qu22mrn-EqfF-72" value="ReadyQueue[0].iTaT = ReadyQueue[0].iFinish - ReadyQueue[0].iArrival;&lt;br&gt;ReadyQueue[0].iWaiting = ReadyQueue[0].iTaT - ReadyQueue[0].BurstTime;&lt;br&gt;Push ReadyQueue[0] into TerminatedArray&lt;br&gt;iTerminated++;&lt;br&gt;Remove ReadyQueue[0];&lt;br&gt;iReady--;&lt;br&gt;" style="rounded=0;whiteSpace=wrap;html=1;" vertex="1" parent="WIyWlLk6GJQsqaUBKTNV-1">
          <mxGeometry x="13.75" y="1690" width="470" height="180" as="geometry" />
        </mxCell>
        <mxCell id="GDvwbU59Qu22mrn-EqfF-73" value="" style="endArrow=classic;html=1;rounded=0;exitX=0.482;exitY=-0.002;exitDx=0;exitDy=0;entryX=0;entryY=0.5;entryDx=0;entryDy=0;exitPerimeter=0;" edge="1" parent="WIyWlLk6GJQsqaUBKTNV-1" source="GDvwbU59Qu22mrn-EqfF-72" target="GDvwbU59Qu22mrn-EqfF-35">
          <mxGeometry width="50" height="50" relative="1" as="geometry">
            <mxPoint x="610" y="1710" as="sourcePoint" />
            <mxPoint x="249" y="1440" as="targetPoint" />
            <Array as="points">
              <mxPoint x="240" y="1450" />
            </Array>
          </mxGeometry>
        </mxCell>
        <mxCell id="GDvwbU59Qu22mrn-EqfF-75" value="" style="endArrow=classic;html=1;rounded=0;exitX=0;exitY=0.5;exitDx=0;exitDy=0;" edge="1" parent="WIyWlLk6GJQsqaUBKTNV-1" source="GDvwbU59Qu22mrn-EqfF-55">
          <mxGeometry width="50" height="50" relative="1" as="geometry">
            <mxPoint x="242" y="2160" as="sourcePoint" />
            <mxPoint x="242" y="1870" as="targetPoint" />
            <Array as="points">
              <mxPoint x="240" y="2160" />
            </Array>
          </mxGeometry>
        </mxCell>
        <mxCell id="GDvwbU59Qu22mrn-EqfF-76" value="False" style="text;html=1;strokeColor=none;fillColor=none;align=center;verticalAlign=middle;whiteSpace=wrap;rounded=0;" vertex="1" parent="WIyWlLk6GJQsqaUBKTNV-1">
          <mxGeometry x="340" y="2120" width="60" height="30" as="geometry" />
        </mxCell>
        <mxCell id="GDvwbU59Qu22mrn-EqfF-77" value="sort_rq == 1 &amp;amp;&amp;amp; iReady &amp;gt; 1" style="rhombus;whiteSpace=wrap;html=1;" vertex="1" parent="WIyWlLk6GJQsqaUBKTNV-1">
          <mxGeometry x="850" y="2100" width="160" height="120" as="geometry" />
        </mxCell>
        <mxCell id="GDvwbU59Qu22mrn-EqfF-78" value="" style="endArrow=classic;html=1;rounded=0;exitX=1;exitY=0.5;exitDx=0;exitDy=0;entryX=0;entryY=0.5;entryDx=0;entryDy=0;" edge="1" parent="WIyWlLk6GJQsqaUBKTNV-1" source="GDvwbU59Qu22mrn-EqfF-55" target="GDvwbU59Qu22mrn-EqfF-77">
          <mxGeometry width="50" height="50" relative="1" as="geometry">
            <mxPoint x="980" y="2030" as="sourcePoint" />
            <mxPoint x="1030" y="1980" as="targetPoint" />
          </mxGeometry>
        </mxCell>
        <mxCell id="GDvwbU59Qu22mrn-EqfF-80" value="Move ReadyQueue[0] to the end of the ReadyQueue" style="rounded=0;whiteSpace=wrap;html=1;" vertex="1" parent="WIyWlLk6GJQsqaUBKTNV-1">
          <mxGeometry x="1070" y="2130" width="290" height="60" as="geometry" />
        </mxCell>
        <mxCell id="GDvwbU59Qu22mrn-EqfF-81" value="" style="endArrow=classic;html=1;rounded=0;exitX=1;exitY=0.5;exitDx=0;exitDy=0;entryX=0;entryY=0.5;entryDx=0;entryDy=0;" edge="1" parent="WIyWlLk6GJQsqaUBKTNV-1" source="GDvwbU59Qu22mrn-EqfF-77" target="GDvwbU59Qu22mrn-EqfF-80">
          <mxGeometry width="50" height="50" relative="1" as="geometry">
            <mxPoint x="1290" y="2010" as="sourcePoint" />
            <mxPoint x="1340" y="1960" as="targetPoint" />
          </mxGeometry>
        </mxCell>
        <mxCell id="GDvwbU59Qu22mrn-EqfF-82" value="True" style="text;html=1;strokeColor=none;fillColor=none;align=center;verticalAlign=middle;whiteSpace=wrap;rounded=0;" vertex="1" parent="WIyWlLk6GJQsqaUBKTNV-1">
          <mxGeometry x="1020" y="2130" width="60" height="30" as="geometry" />
        </mxCell>
        <mxCell id="GDvwbU59Qu22mrn-EqfF-83" value="ReadyQueue[0].BurstTime_have&lt;br&gt;==&lt;br&gt;ReadyQueue[0].BurstTime" style="rhombus;whiteSpace=wrap;html=1;" vertex="1" parent="WIyWlLk6GJQsqaUBKTNV-1">
          <mxGeometry x="1340" y="1465" width="250" height="155" as="geometry" />
        </mxCell>
        <mxCell id="GDvwbU59Qu22mrn-EqfF-84" value="" style="endArrow=classic;html=1;rounded=0;exitX=0.5;exitY=0;exitDx=0;exitDy=0;" edge="1" parent="WIyWlLk6GJQsqaUBKTNV-1" source="GDvwbU59Qu22mrn-EqfF-77">
          <mxGeometry width="50" height="50" relative="1" as="geometry">
            <mxPoint x="1250" y="1930" as="sourcePoint" />
            <mxPoint x="1200" y="2040" as="targetPoint" />
            <Array as="points">
              <mxPoint x="930" y="2040" />
            </Array>
          </mxGeometry>
        </mxCell>
        <mxCell id="GDvwbU59Qu22mrn-EqfF-85" value="" style="endArrow=classic;html=1;rounded=0;entryX=0;entryY=0.5;entryDx=0;entryDy=0;" edge="1" parent="WIyWlLk6GJQsqaUBKTNV-1" target="GDvwbU59Qu22mrn-EqfF-83">
          <mxGeometry width="50" height="50" relative="1" as="geometry">
            <mxPoint x="1200" y="2130" as="sourcePoint" />
            <mxPoint x="1200" y="1680" as="targetPoint" />
            <Array as="points">
              <mxPoint x="1200" y="1543" />
            </Array>
          </mxGeometry>
        </mxCell>
        <mxCell id="GDvwbU59Qu22mrn-EqfF-87" value="ReadyQueue[0].BurstTime_have &amp;gt; quantumTime" style="rhombus;whiteSpace=wrap;html=1;" vertex="1" parent="WIyWlLk6GJQsqaUBKTNV-1">
          <mxGeometry x="1320" y="1665" width="290" height="170" as="geometry" />
        </mxCell>
        <mxCell id="GDvwbU59Qu22mrn-EqfF-88" value="" style="endArrow=classic;html=1;rounded=0;exitX=0.5;exitY=1;exitDx=0;exitDy=0;entryX=0.5;entryY=0;entryDx=0;entryDy=0;" edge="1" parent="WIyWlLk6GJQsqaUBKTNV-1" source="GDvwbU59Qu22mrn-EqfF-83">
          <mxGeometry width="50" height="50" relative="1" as="geometry">
            <mxPoint x="1200" y="1835" as="sourcePoint" />
            <mxPoint x="1464.9999999999995" y="1675" as="targetPoint" />
          </mxGeometry>
        </mxCell>
        <mxCell id="GDvwbU59Qu22mrn-EqfF-89" value="" style="endArrow=classic;html=1;rounded=0;exitX=0.5;exitY=1;exitDx=0;exitDy=0;entryX=-0.007;entryY=0.443;entryDx=0;entryDy=0;entryPerimeter=0;" edge="1" parent="WIyWlLk6GJQsqaUBKTNV-1" source="GDvwbU59Qu22mrn-EqfF-87" target="GDvwbU59Qu22mrn-EqfF-90">
          <mxGeometry width="50" height="50" relative="1" as="geometry">
            <mxPoint x="1464.9999999999995" y="1845" as="sourcePoint" />
            <mxPoint x="1630" y="1945" as="targetPoint" />
            <Array as="points">
              <mxPoint x="1465" y="1945" />
            </Array>
          </mxGeometry>
        </mxCell>
        <mxCell id="GDvwbU59Qu22mrn-EqfF-90" value="ReadyQueue[0].iFinish = current&amp;nbsp; + ReadyQueue[0].BurstTime_have;&lt;br&gt;current = ReadyQueue[0].iFinish;&lt;br&gt;ReadyQueue[0].BurstTime_have=0;&lt;br&gt;sort rq = 0;&lt;br&gt;Draw GanttChart" style="rounded=0;whiteSpace=wrap;html=1;" vertex="1" parent="WIyWlLk6GJQsqaUBKTNV-1">
          <mxGeometry x="1650" y="1865" width="440" height="180" as="geometry" />
        </mxCell>
        <mxCell id="GDvwbU59Qu22mrn-EqfF-91" value="ReadyQueue[0].BurstTime_have -= quantumTime;&lt;br&gt;current +=&amp;nbsp; quantumTime;&lt;br&gt;sort_rq=1;&lt;br&gt;DrawGanttChart" style="rounded=0;whiteSpace=wrap;html=1;" vertex="1" parent="WIyWlLk6GJQsqaUBKTNV-1">
          <mxGeometry x="1650" y="1685" width="440" height="110" as="geometry" />
        </mxCell>
        <mxCell id="GDvwbU59Qu22mrn-EqfF-93" value="" style="endArrow=classic;html=1;rounded=0;exitX=0.337;exitY=1.01;exitDx=0;exitDy=0;entryX=0.003;entryY=0.583;entryDx=0;entryDy=0;entryPerimeter=0;exitPerimeter=0;" edge="1" parent="WIyWlLk6GJQsqaUBKTNV-1" source="GDvwbU59Qu22mrn-EqfF-94" target="GDvwbU59Qu22mrn-EqfF-91">
          <mxGeometry width="50" height="50" relative="1" as="geometry">
            <mxPoint x="1539.9999999999995" y="1749.12" as="sourcePoint" />
            <mxPoint x="1651.7600000000002" y="1750.8899999999999" as="targetPoint" />
          </mxGeometry>
        </mxCell>
        <mxCell id="GDvwbU59Qu22mrn-EqfF-94" value="True" style="text;html=1;strokeColor=none;fillColor=none;align=center;verticalAlign=middle;whiteSpace=wrap;rounded=0;" vertex="1" parent="WIyWlLk6GJQsqaUBKTNV-1">
          <mxGeometry x="1590" y="1720" width="60" height="30" as="geometry" />
        </mxCell>
        <mxCell id="GDvwbU59Qu22mrn-EqfF-95" value="False" style="text;html=1;strokeColor=none;fillColor=none;align=center;verticalAlign=middle;whiteSpace=wrap;rounded=0;" vertex="1" parent="WIyWlLk6GJQsqaUBKTNV-1">
          <mxGeometry x="1460" y="1880" width="60" height="30" as="geometry" />
        </mxCell>
        <mxCell id="GDvwbU59Qu22mrn-EqfF-96" value="False" style="text;html=1;strokeColor=none;fillColor=none;align=center;verticalAlign=middle;whiteSpace=wrap;rounded=0;" vertex="1" parent="WIyWlLk6GJQsqaUBKTNV-1">
          <mxGeometry x="1410" y="1625" width="60" height="30" as="geometry" />
        </mxCell>
        <mxCell id="GDvwbU59Qu22mrn-EqfF-97" value="ReadyQueue[0].iStart = current;&lt;br&gt;ReadyQueue[0].iResponse = ReadyQueue[0].iStart - ReadyQueue[0].iArrival;" style="rounded=0;whiteSpace=wrap;html=1;" vertex="1" parent="WIyWlLk6GJQsqaUBKTNV-1">
          <mxGeometry x="1650" y="1505" width="440" height="60" as="geometry" />
        </mxCell>
        <mxCell id="GDvwbU59Qu22mrn-EqfF-98" value="False" style="text;html=1;strokeColor=none;fillColor=none;align=center;verticalAlign=middle;whiteSpace=wrap;rounded=0;" vertex="1" parent="WIyWlLk6GJQsqaUBKTNV-1">
          <mxGeometry x="930" y="2060" width="60" height="30" as="geometry" />
        </mxCell>
        <mxCell id="GDvwbU59Qu22mrn-EqfF-99" value="" style="endArrow=classic;html=1;rounded=0;" edge="1" parent="WIyWlLk6GJQsqaUBKTNV-1">
          <mxGeometry width="50" height="50" relative="1" as="geometry">
            <mxPoint x="2090" y="1960" as="sourcePoint" />
            <mxPoint x="710" y="1450" as="targetPoint" />
            <Array as="points">
              <mxPoint x="2147.5" y="1960" />
              <mxPoint x="2147.5" y="1440" />
            </Array>
          </mxGeometry>
        </mxCell>
        <mxCell id="GDvwbU59Qu22mrn-EqfF-100" value="" style="endArrow=classic;html=1;rounded=0;exitX=1;exitY=0.5;exitDx=0;exitDy=0;" edge="1" parent="WIyWlLk6GJQsqaUBKTNV-1" source="GDvwbU59Qu22mrn-EqfF-91">
          <mxGeometry width="50" height="50" relative="1" as="geometry">
            <mxPoint x="1570" y="1840" as="sourcePoint" />
            <mxPoint x="2140" y="1740" as="targetPoint" />
          </mxGeometry>
        </mxCell>
        <mxCell id="GDvwbU59Qu22mrn-EqfF-101" value="" style="endArrow=classic;html=1;rounded=0;exitX=0.5;exitY=1;exitDx=0;exitDy=0;entryX=0.5;entryY=0;entryDx=0;entryDy=0;" edge="1" parent="WIyWlLk6GJQsqaUBKTNV-1" source="GDvwbU59Qu22mrn-EqfF-97" target="GDvwbU59Qu22mrn-EqfF-87">
          <mxGeometry width="50" height="50" relative="1" as="geometry">
            <mxPoint x="1570" y="1840" as="sourcePoint" />
            <mxPoint x="1470" y="1660" as="targetPoint" />
            <Array as="points">
              <mxPoint x="1870" y="1630" />
              <mxPoint x="1465" y="1630" />
            </Array>
          </mxGeometry>
        </mxCell>
        <mxCell id="GDvwbU59Qu22mrn-EqfF-102" value="" style="endArrow=classic;html=1;rounded=0;exitX=1;exitY=0.5;exitDx=0;exitDy=0;entryX=0.003;entryY=0.6;entryDx=0;entryDy=0;entryPerimeter=0;" edge="1" parent="WIyWlLk6GJQsqaUBKTNV-1" source="GDvwbU59Qu22mrn-EqfF-83" target="GDvwbU59Qu22mrn-EqfF-97">
          <mxGeometry width="50" height="50" relative="1" as="geometry">
            <mxPoint x="1560" y="1560" as="sourcePoint" />
            <mxPoint x="1610" y="1510" as="targetPoint" />
          </mxGeometry>
        </mxCell>
        <mxCell id="GDvwbU59Qu22mrn-EqfF-103" value="True" style="text;html=1;strokeColor=none;fillColor=none;align=center;verticalAlign=middle;whiteSpace=wrap;rounded=0;" vertex="1" parent="WIyWlLk6GJQsqaUBKTNV-1">
          <mxGeometry x="1580" y="1520" width="60" height="30" as="geometry" />
        </mxCell>
        <mxCell id="GDvwbU59Qu22mrn-EqfF-106" value="" style="endArrow=classic;html=1;rounded=0;exitX=1;exitY=0.5;exitDx=0;exitDy=0;" edge="1" parent="WIyWlLk6GJQsqaUBKTNV-1" source="GDvwbU59Qu22mrn-EqfF-64">
          <mxGeometry width="50" height="50" relative="1" as="geometry">
            <mxPoint x="1100" y="1640" as="sourcePoint" />
            <mxPoint x="1120" y="1450" as="targetPoint" />
            <Array as="points">
              <mxPoint x="1120" y="1920" />
            </Array>
          </mxGeometry>
        </mxCell>
        <mxCell id="GDvwbU59Qu22mrn-EqfF-107" value="True" style="text;html=1;strokeColor=none;fillColor=none;align=center;verticalAlign=middle;whiteSpace=wrap;rounded=0;" vertex="1" parent="WIyWlLk6GJQsqaUBKTNV-1">
          <mxGeometry x="750" y="2130" width="60" height="30" as="geometry" />
        </mxCell>
        <mxCell id="GDvwbU59Qu22mrn-EqfF-108" value="" style="endArrow=classic;html=1;rounded=0;exitX=0;exitY=0.5;exitDx=0;exitDy=0;entryX=0;entryY=0.5;entryDx=0;entryDy=0;" edge="1" parent="WIyWlLk6GJQsqaUBKTNV-1" source="GDvwbU59Qu22mrn-EqfF-45" target="GDvwbU59Qu22mrn-EqfF-52">
          <mxGeometry width="50" height="50" relative="1" as="geometry">
            <mxPoint x="880" y="1860" as="sourcePoint" />
            <mxPoint x="930" y="1810" as="targetPoint" />
            <Array as="points">
              <mxPoint x="500" y="1610" />
              <mxPoint x="500" y="1920" />
            </Array>
          </mxGeometry>
        </mxCell>
        <mxCell id="GDvwbU59Qu22mrn-EqfF-109" value="False" style="text;html=1;strokeColor=none;fillColor=none;align=center;verticalAlign=middle;whiteSpace=wrap;rounded=0;" vertex="1" parent="WIyWlLk6GJQsqaUBKTNV-1">
          <mxGeometry x="487.5" y="1620" width="60" height="30" as="geometry" />
        </mxCell>
        <mxCell id="GDvwbU59Qu22mrn-EqfF-110" value="" style="endArrow=classic;html=1;rounded=0;entryX=1;entryY=0.5;entryDx=0;entryDy=0;exitX=0.48;exitY=-0.009;exitDx=0;exitDy=0;exitPerimeter=0;" edge="1" parent="WIyWlLk6GJQsqaUBKTNV-1" source="GDvwbU59Qu22mrn-EqfF-61" target="GDvwbU59Qu22mrn-EqfF-45">
          <mxGeometry width="50" height="50" relative="1" as="geometry">
            <mxPoint x="740" y="1750" as="sourcePoint" />
            <mxPoint x="790" y="1700" as="targetPoint" />
            <Array as="points">
              <mxPoint x="920" y="1610" />
            </Array>
          </mxGeometry>
        </mxCell>
        <mxCell id="GDvwbU59Qu22mrn-EqfF-111" value="" style="endArrow=classic;html=1;rounded=0;" edge="1" parent="WIyWlLk6GJQsqaUBKTNV-1">
          <mxGeometry width="50" height="50" relative="1" as="geometry">
            <mxPoint x="2090" y="1960" as="sourcePoint" />
            <mxPoint x="710" y="1450" as="targetPoint" />
            <Array as="points">
              <mxPoint x="2147.5" y="1960" />
              <mxPoint x="2147.5" y="1440" />
            </Array>
          </mxGeometry>
        </mxCell>
      </root>
    </mxGraphModel>
  </diagram>
</mxfile>
